G04 DipTrace Beta 2.3.5.2*
%INAmpWings.GBO*%
%MOIN*%
%ADD15C,0.008*%
%ADD34C,0.0031*%
%ADD36C,0.0046*%
%FSLAX44Y44*%
G04*
G70*
G90*
G75*
G01*
%LNBottom BottomSilk*%
%LPD*%
X130Y730D2*
D15*
X850D1*
Y130D1*
X130D1*
Y730D1*
X480Y2150D2*
X1280D1*
Y1730D1*
X480D1*
Y2150D1*
X3136Y1067D2*
D36*
X3150Y1095D1*
X3179Y1124D1*
X3208Y1138D1*
X3265D1*
X3294Y1124D1*
X3322Y1095D1*
X3337Y1067D1*
X3351Y1024D1*
Y952D1*
X3337Y909D1*
X3322Y880D1*
X3294Y851D1*
X3265Y837D1*
X3208D1*
X3179Y851D1*
X3150Y880D1*
X3136Y909D1*
X1425Y1138D2*
X1311Y837D1*
X1196Y1138D1*
X2156Y1057D2*
X2170Y1085D1*
X2199Y1114D1*
X2228Y1128D1*
X2285D1*
X2314Y1114D1*
X2342Y1085D1*
X2357Y1057D1*
X2371Y1014D1*
Y942D1*
X2357Y899D1*
X2342Y870D1*
X2314Y841D1*
X2285Y827D1*
X2228D1*
X2199Y841D1*
X2170Y870D1*
X2156Y899D1*
Y942D1*
X2228D1*
X1170Y1936D2*
D34*
X1084D1*
X1056Y1946D1*
X1046Y1956D1*
X1036Y1975D1*
Y1994D1*
X1046Y2013D1*
X1056Y2023D1*
X1084Y2032D1*
X1170D1*
Y1831D1*
X1103Y1936D2*
X1036Y1831D1*
X821D2*
X898Y2032D1*
X975Y1831D1*
X946Y1898D2*
X850D1*
X760Y2032D2*
X712Y1831D1*
X664Y2032D1*
X616Y1831D1*
X568Y2032D1*
M02*
