G04 DipTrace Beta 2.3.5.2*
%INAmpWings.GBL*%
%MOIN*%
%ADD13C,0.006*%
%ADD14C,0.007*%
%ADD16R,0.063X0.063*%
%ADD17R,0.0433X0.0394*%
%ADD18R,0.025X0.05*%
%ADD22C,0.027*%
%FSLAX44Y44*%
G04*
G70*
G90*
G75*
G01*
%LNBottom*%
%LPD*%
X3160Y450D2*
D13*
X3170Y460D1*
X3240D1*
X4140Y850D2*
X4050D1*
X3830Y1070D1*
X2410D1*
X2220Y880D1*
X1770D1*
X1630Y1020D1*
X3870Y1380D2*
X3910D1*
Y1800D1*
X3870Y1840D1*
X714Y1140D2*
X700D1*
Y610D1*
X714D1*
Y386D1*
X670Y430D1*
X714Y610D2*
X1090D1*
X1240Y460D1*
X316Y430D2*
X300D1*
X140Y590D1*
Y1640D1*
X290Y1790D1*
X250D1*
X3201Y1380D2*
X3080D1*
X3000Y1300D1*
X1040Y1500D2*
X520D1*
X290Y1270D1*
Y1210D1*
X360Y1140D1*
X2680Y1670D2*
Y1700D1*
X3061D1*
X3201Y1840D1*
X2680Y1670D2*
Y1630D1*
X2420Y1370D1*
X1750D1*
X1580Y1540D1*
X1080D1*
X1040Y1500D1*
D22*
X3160Y450D3*
X250Y1790D3*
X2270Y280D3*
X1580Y1780D3*
X1040Y1500D3*
X4140Y850D3*
X1630Y1020D3*
X3770Y700D3*
X3000Y1300D3*
X1950Y1120D3*
X1050Y980D3*
X122Y4176D2*
D14*
X4438D1*
X122Y4108D2*
X4438D1*
X122Y4039D2*
X4438D1*
X122Y3970D2*
X4438D1*
X122Y3902D2*
X4438D1*
X122Y3833D2*
X4438D1*
X122Y3764D2*
X4438D1*
X122Y3695D2*
X4438D1*
X122Y3627D2*
X4438D1*
X122Y3558D2*
X4438D1*
X122Y3489D2*
X4438D1*
X122Y3421D2*
X4438D1*
X122Y3352D2*
X4438D1*
X122Y3283D2*
X4438D1*
X122Y3215D2*
X4438D1*
X122Y3146D2*
X4438D1*
X122Y3077D2*
X4438D1*
X122Y3009D2*
X4438D1*
X122Y2940D2*
X4438D1*
X122Y2871D2*
X4438D1*
X122Y2803D2*
X4438D1*
X122Y2734D2*
X4438D1*
X122Y2665D2*
X4438D1*
X122Y2596D2*
X4438D1*
X122Y2528D2*
X4438D1*
X122Y2459D2*
X4438D1*
X122Y2390D2*
X4438D1*
X122Y2322D2*
X4438D1*
X122Y2253D2*
X4438D1*
X122Y2184D2*
X4438D1*
X122Y2116D2*
X2879D1*
X3522D2*
X3550D1*
X4191D2*
X4438D1*
X122Y2047D2*
X2879D1*
X3522D2*
X3550D1*
X4191D2*
X4438D1*
X394Y1978D2*
X1452D1*
X1708D2*
X2879D1*
X3522D2*
X3550D1*
X4191D2*
X4438D1*
X456Y1910D2*
X1379D1*
X1781D2*
X2358D1*
X3522D2*
X3550D1*
X4191D2*
X4438D1*
X483Y1841D2*
X1349D1*
X1811D2*
X2358D1*
X3522D2*
X3550D1*
X4191D2*
X4438D1*
X489Y1772D2*
X1340D1*
X1820D2*
X2358D1*
X3522D2*
X3550D1*
X4191D2*
X4438D1*
X473Y1704D2*
X920D1*
X1159D2*
X1353D1*
X1807D2*
X2358D1*
X3522D2*
X3550D1*
X4191D2*
X4438D1*
X430Y1635D2*
X844D1*
X1769D2*
X2358D1*
X3522D2*
X3550D1*
X4191D2*
X4438D1*
X321Y1566D2*
X398D1*
X1741D2*
X2358D1*
X3522D2*
X3550D1*
X4191D2*
X4438D1*
X275Y1497D2*
X329D1*
X3522D2*
X3550D1*
X4191D2*
X4438D1*
X3522Y1429D2*
X3550D1*
X4191D2*
X4438D1*
X1233Y1360D2*
X1572D1*
X2598D2*
X2769D1*
X3522D2*
X3550D1*
X4191D2*
X4438D1*
X1150Y1291D2*
X1641D1*
X2529D2*
X2761D1*
X3522D2*
X3550D1*
X4191D2*
X4438D1*
X944Y1223D2*
X1509D1*
X1751D2*
X2774D1*
X3522D2*
X3550D1*
X4191D2*
X4438D1*
X944Y1154D2*
X1433D1*
X1828D2*
X2307D1*
X4191D2*
X4438D1*
X944Y1085D2*
X1399D1*
X1861D2*
X2238D1*
X4002D2*
X4438D1*
X944Y1017D2*
X1390D1*
X1869D2*
X2169D1*
X4309D2*
X4438D1*
X944Y948D2*
X1401D1*
X4358D2*
X4438D1*
X944Y879D2*
X1437D1*
X2407D2*
X3833D1*
X4378D2*
X4438D1*
X2338Y811D2*
X2820D1*
X3660D2*
X3902D1*
X4376D2*
X4438D1*
X1659Y742D2*
X2820D1*
X3660D2*
X3927D1*
X4353D2*
X4438D1*
X1659Y673D2*
X2820D1*
X3660D2*
X3982D1*
X4298D2*
X4438D1*
X1659Y605D2*
X2820D1*
X3660D2*
X4438D1*
X1659Y536D2*
X2820D1*
X3660D2*
X4438D1*
X1659Y467D2*
X2820D1*
X3660D2*
X4438D1*
X1659Y398D2*
X2820D1*
X3660D2*
X4438D1*
X1659Y330D2*
X2820D1*
X3660D2*
X4438D1*
X1659Y261D2*
X2820D1*
X3660D2*
X4438D1*
X1659Y192D2*
X2820D1*
X3660D2*
X4438D1*
X938Y873D2*
X1450D1*
X1419Y922D1*
X1407Y955D1*
X1399Y989D1*
X1397Y1024D1*
X1400Y1058D1*
X1409Y1092D1*
X1422Y1125D1*
X1440Y1155D1*
X1462Y1182D1*
X1489Y1205D1*
X1518Y1224D1*
X1550Y1238D1*
X1583Y1248D1*
X1618Y1252D1*
X1653D1*
X1687Y1246D1*
X1721Y1234D1*
X1752Y1219D1*
X1780Y1198D1*
X1805Y1174D1*
X1826Y1146D1*
X1843Y1115D1*
X1854Y1082D1*
X1861Y1048D1*
X1862Y1008D1*
X2167D1*
X2320Y1160D1*
X2347Y1181D1*
X2380Y1194D1*
X2410Y1198D1*
X2792D1*
X2777Y1235D1*
X2769Y1269D1*
X2767Y1304D1*
X2770Y1338D1*
X2780Y1375D1*
X2606D1*
X2510Y1280D1*
X2483Y1259D1*
X2450Y1246D1*
X2420Y1242D1*
X1750D1*
X1715Y1247D1*
X1683Y1261D1*
X1660Y1280D1*
X1527Y1412D1*
X1255D1*
X1232Y1368D1*
X1210Y1341D1*
X1184Y1317D1*
X1155Y1298D1*
X1124Y1283D1*
X1090Y1273D1*
X1056Y1268D1*
X1021D1*
X986Y1274D1*
X953Y1284D1*
X936Y1292D1*
X937Y1103D1*
Y872D1*
X1653Y789D2*
Y165D1*
X2826D1*
X2827Y467D1*
Y873D1*
X3653D1*
Y165D1*
X4445D1*
Y4245D1*
X115D1*
Y1980D1*
X138Y1994D1*
X170Y2008D1*
X203Y2018D1*
X238Y2022D1*
X273D1*
X307Y2016D1*
X341Y2004D1*
X372Y1989D1*
X400Y1968D1*
X425Y1944D1*
X446Y1916D1*
X463Y1885D1*
X474Y1852D1*
X481Y1818D1*
X483Y1790D1*
X480Y1755D1*
X472Y1721D1*
X460Y1689D1*
X442Y1658D1*
X420Y1631D1*
X394Y1607D1*
X365Y1588D1*
X334Y1573D1*
X300Y1563D1*
X267Y1558D1*
X268Y1488D1*
X326D1*
X430Y1590D1*
X457Y1611D1*
X490Y1624D1*
X520Y1628D1*
X845D1*
X872Y1662D1*
X899Y1685D1*
X928Y1704D1*
X960Y1718D1*
X993Y1728D1*
X1028Y1732D1*
X1063D1*
X1097Y1726D1*
X1131Y1714D1*
X1162Y1699D1*
X1200Y1668D1*
X1376D1*
X1357Y1715D1*
X1349Y1749D1*
X1347Y1784D1*
X1350Y1818D1*
X1359Y1852D1*
X1372Y1885D1*
X1390Y1915D1*
X1412Y1942D1*
X1439Y1965D1*
X1468Y1984D1*
X1500Y1998D1*
X1533Y2008D1*
X1568Y2012D1*
X1603D1*
X1637Y2006D1*
X1671Y1994D1*
X1702Y1979D1*
X1730Y1958D1*
X1755Y1934D1*
X1776Y1906D1*
X1793Y1875D1*
X1804Y1842D1*
X1811Y1808D1*
X1813Y1780D1*
X1810Y1745D1*
X1802Y1711D1*
X1790Y1679D1*
X1772Y1648D1*
X1750Y1621D1*
X1713Y1589D1*
X1803Y1498D1*
X2366D1*
Y1965D1*
X2886D1*
Y2135D1*
X3515D1*
X3514Y1545D1*
X3515Y1430D1*
Y1197D1*
X3555Y1198D1*
X3556Y1675D1*
Y2135D1*
X4184D1*
X4183Y1545D1*
X4184Y1430D1*
Y1085D1*
X3995D1*
X4028Y1054D1*
X4060Y1068D1*
X4093Y1078D1*
X4128Y1082D1*
X4163D1*
X4197Y1076D1*
X4231Y1064D1*
X4262Y1049D1*
X4290Y1028D1*
X4315Y1004D1*
X4336Y976D1*
X4353Y945D1*
X4364Y912D1*
X4371Y878D1*
X4373Y850D1*
X4370Y815D1*
X4362Y781D1*
X4350Y749D1*
X4332Y718D1*
X4310Y691D1*
X4284Y667D1*
X4255Y648D1*
X4224Y633D1*
X4190Y623D1*
X4156Y618D1*
X4121D1*
X4086Y624D1*
X4053Y634D1*
X4022Y650D1*
X3993Y670D1*
X3967Y694D1*
X3946Y721D1*
X3929Y752D1*
X3917Y785D1*
X3910Y809D1*
X3776Y943D1*
X3410Y942D1*
X2462D1*
X2310Y790D1*
X2283Y769D1*
X2250Y756D1*
X2220Y752D1*
X1770D1*
X1735Y757D1*
X1703Y772D1*
X1677Y792D1*
X3514Y1675D2*
X3515Y1605D1*
Y1535D1*
X3556Y1545D1*
Y1685D1*
X482Y778D2*
X573D1*
X572Y793D1*
X492D1*
X373Y792D1*
X267D1*
X268Y778D1*
X538Y777D1*
X548Y792D1*
X478D1*
D16*
X1240Y460D3*
X2240D3*
X3240D3*
D17*
X2680Y1670D3*
X2011D3*
X3870Y1380D3*
X3201D3*
X3870Y1840D3*
X3201D3*
D18*
X670Y430D3*
X316D3*
X360Y1140D3*
X714D3*
M02*
