G04 DipTrace Beta 2.3.5.2*
%INAmpWings.GTL*%
%MOIN*%
%ADD13C,0.006*%
%ADD14C,0.007*%
%ADD17R,0.0433X0.0394*%
%ADD20R,0.0236X0.0433*%
%ADD22C,0.027*%
%FSLAX44Y44*%
G04*
G70*
G90*
G75*
G01*
%LNTop*%
%LPD*%
X4138Y1423D2*
D13*
X4033D1*
X3440Y830D1*
Y410D1*
X3390Y360D1*
X3300Y450D1*
X3160D1*
X4138Y360D2*
X4140Y850D1*
X1630Y1020D2*
Y1001D1*
X1479Y850D1*
Y410D1*
X1485Y405D1*
X1825D1*
X1890Y470D1*
X2270Y280D2*
X2264Y286D1*
Y470D1*
X815Y405D2*
Y845D1*
X810Y850D1*
X421Y1380D2*
Y1239D1*
X810Y850D1*
X2638Y1533D2*
Y1728D1*
X3610Y2700D1*
Y3000D1*
X1890Y1533D2*
Y1580D1*
X1670Y1800D1*
Y2260D1*
X930Y3000D1*
X1890Y1533D2*
X1967D1*
X1720Y1780D1*
X1580D1*
X250Y1790D2*
X930Y2470D1*
Y3000D1*
X3000Y1300D2*
Y1220D1*
X2390D1*
X1910Y1700D1*
Y1513D1*
X1890Y1533D1*
X3000Y1300D2*
X2940D1*
X2638Y998D1*
Y470D1*
X3000Y1300D2*
X3267D1*
X3390Y1423D1*
X1090Y1380D2*
X1040Y1430D1*
Y1500D1*
D22*
X3160Y450D3*
X250Y1790D3*
X2270Y280D3*
X1580Y1780D3*
X1040Y1500D3*
X4140Y850D3*
X1630Y1020D3*
X3770Y700D3*
X3000Y1300D3*
X1950Y1120D3*
X1050Y980D3*
X122Y1566D2*
D14*
X180D1*
X321D2*
X769D1*
X1411D2*
X1481D1*
X2231D2*
X2415D1*
X2861D2*
X3168D1*
X3613D2*
X3915D1*
X4361D2*
X4438D1*
X122Y1497D2*
X769D1*
X1411D2*
X1667D1*
X2300D2*
X2415D1*
X3130D2*
X3168D1*
X3613D2*
X3915D1*
X4361D2*
X4438D1*
X122Y1429D2*
X769D1*
X1411D2*
X1667D1*
X2369D2*
X2415D1*
X3613D2*
X3851D1*
X4361D2*
X4438D1*
X122Y1360D2*
X769D1*
X1411D2*
X1667D1*
X3613D2*
X3782D1*
X4361D2*
X4438D1*
X122Y1291D2*
X769D1*
X1411D2*
X1667D1*
X3613D2*
X3714D1*
X4361D2*
X4438D1*
X122Y1223D2*
X769D1*
X1411D2*
X1509D1*
X2113D2*
X2200D1*
X3613D2*
X3646D1*
X4361D2*
X4438D1*
X122Y1154D2*
X769D1*
X1411D2*
X1432D1*
X1828D2*
X2269D1*
X4361D2*
X4438D1*
X122Y1085D2*
X1159D1*
X1861D2*
X2538D1*
X3096D2*
X3508D1*
X3883D2*
X4438D1*
X122Y1017D2*
X1159D1*
X1869D2*
X2505D1*
X2844D2*
X3439D1*
X3814D2*
X3971D1*
X4309D2*
X4438D1*
X122Y948D2*
X1159D1*
X1858D2*
X2504D1*
X2776D2*
X3370D1*
X3745D2*
X3922D1*
X4358D2*
X4438D1*
X122Y879D2*
X1159D1*
X1822D2*
X2504D1*
X2773D2*
X3315D1*
X3677D2*
X3902D1*
X4378D2*
X4438D1*
X122Y811D2*
X1159D1*
X1800D2*
X2504D1*
X2773D2*
X3306D1*
X3608D2*
X3904D1*
X4376D2*
X4438D1*
X122Y742D2*
X1159D1*
X2113D2*
X2415D1*
X2861D2*
X3306D1*
X3574D2*
X3927D1*
X4353D2*
X4438D1*
X122Y673D2*
X1159D1*
X2113D2*
X2415D1*
X2861D2*
X3088D1*
X3613D2*
X3915D1*
X4361D2*
X4438D1*
X122Y605D2*
X1159D1*
X2113D2*
X2415D1*
X2861D2*
X2979D1*
X3613D2*
X3915D1*
X4361D2*
X4438D1*
X122Y536D2*
X1163D1*
X2113D2*
X2415D1*
X2861D2*
X2937D1*
X3613D2*
X3915D1*
X4361D2*
X4438D1*
X122Y467D2*
X1163D1*
X2113D2*
X2415D1*
X2861D2*
X2921D1*
X3613D2*
X3915D1*
X4361D2*
X4438D1*
X122Y398D2*
X1163D1*
X2113D2*
X2415D1*
X2861D2*
X2926D1*
X3613D2*
X3915D1*
X4361D2*
X4438D1*
X122Y330D2*
X1163D1*
X2113D2*
X2415D1*
X2861D2*
X2953D1*
X3613D2*
X3915D1*
X4361D2*
X4438D1*
X122Y261D2*
X1163D1*
X2113D2*
X2415D1*
X2861D2*
X3017D1*
X3613D2*
X3915D1*
X4361D2*
X4438D1*
X122Y192D2*
X1163D1*
X2113D2*
X2415D1*
X2861D2*
X3168D1*
X3613D2*
X3915D1*
X4361D2*
X4438D1*
X1170Y166D2*
Y555D1*
X1165D1*
Y1086D1*
X776Y1085D1*
Y1585D1*
X360D1*
X334Y1573D1*
X300Y1563D1*
X266Y1558D1*
X231D1*
X196Y1564D1*
X163Y1574D1*
X140Y1585D1*
X115D1*
Y165D1*
X1170D1*
X1404Y1145D2*
X1433D1*
X1462Y1182D1*
X1489Y1205D1*
X1518Y1224D1*
X1550Y1238D1*
X1583Y1248D1*
X1618Y1252D1*
X1653D1*
X1673Y1248D1*
X1674Y1499D1*
Y1568D1*
X1630Y1553D1*
X1596Y1548D1*
X1561D1*
X1526Y1554D1*
X1493Y1564D1*
X1453Y1585D1*
X1403D1*
X1404Y1430D1*
Y1144D1*
X1794Y855D2*
Y785D1*
X2106Y784D1*
Y165D1*
X2422D1*
Y784D1*
X2510Y785D1*
Y998D1*
X2515Y1033D1*
X2529Y1065D1*
X2548Y1088D1*
X2552Y1092D1*
X2390D1*
X2355Y1097D1*
X2323Y1111D1*
X2300Y1130D1*
X2106Y1322D1*
Y1219D1*
X1752D1*
X1780Y1198D1*
X1805Y1174D1*
X1826Y1146D1*
X1843Y1115D1*
X1854Y1082D1*
X1861Y1048D1*
X1863Y1020D1*
X1860Y985D1*
X1852Y951D1*
X1840Y919D1*
X1822Y888D1*
X1793Y854D1*
X4370Y815D2*
X4362Y781D1*
X4350Y749D1*
X4332Y718D1*
X4310Y691D1*
X4292Y674D1*
X4354D1*
Y166D1*
X4445Y165D1*
Y1585D1*
X4354D1*
Y1109D1*
X3922D1*
Y1132D1*
X3567Y777D1*
X3568Y674D1*
X3606D1*
Y166D1*
X3860Y165D1*
X3922D1*
Y674D1*
X3987D1*
X3967Y694D1*
X3946Y721D1*
X3929Y752D1*
X3917Y785D1*
X3909Y819D1*
X3907Y854D1*
X3910Y888D1*
X3919Y922D1*
X3932Y955D1*
X3950Y985D1*
X3972Y1012D1*
X3999Y1035D1*
X4028Y1054D1*
X4060Y1068D1*
X4093Y1078D1*
X4128Y1082D1*
X4163D1*
X4197Y1076D1*
X4231Y1064D1*
X4262Y1049D1*
X4290Y1028D1*
X4315Y1004D1*
X4336Y976D1*
X4353Y945D1*
X4364Y912D1*
X4371Y878D1*
X4373Y850D1*
X4370Y815D1*
X3175Y1147D2*
X3144Y1117D1*
X3115Y1098D1*
X3084Y1083D1*
X3050Y1073D1*
X3016Y1068D1*
X2981D1*
X2946Y1074D1*
X2907Y1086D1*
X2765Y944D1*
X2766Y785D1*
X2854Y784D1*
Y165D1*
X3174D1*
Y217D1*
X3141Y218D1*
X3106Y224D1*
X3073Y234D1*
X3042Y250D1*
X3013Y270D1*
X2987Y294D1*
X2966Y321D1*
X2949Y352D1*
X2937Y385D1*
X2929Y419D1*
X2927Y454D1*
X2930Y488D1*
X2939Y522D1*
X2952Y555D1*
X2970Y585D1*
X2992Y612D1*
X3019Y635D1*
X3048Y654D1*
X3080Y668D1*
X3113Y678D1*
X3148Y682D1*
X3183D1*
X3223Y674D1*
X3313D1*
X3312Y830D1*
X3317Y865D1*
X3331Y897D1*
X3350Y920D1*
X3536Y1109D1*
X3174D1*
Y1145D1*
X2854Y1481D2*
X2888Y1504D1*
X2920Y1518D1*
X2953Y1528D1*
X2988Y1532D1*
X3023D1*
X3057Y1526D1*
X3091Y1514D1*
X3122Y1499D1*
X3150Y1478D1*
X3174Y1454D1*
Y1584D1*
X2854Y1585D1*
Y1481D1*
X2422Y1369D2*
Y1585D1*
X2206D1*
X2422Y1369D1*
X3922Y1493D2*
Y1584D1*
X3606Y1585D1*
Y1176D1*
X3923Y1493D1*
D17*
X1485Y405D3*
X815D3*
X810Y850D3*
X1479D3*
X1090Y1380D3*
X421D3*
D20*
X1890Y470D3*
X2264D3*
X2638D3*
Y1533D3*
X1890D3*
G36*
X80Y1730D2*
X1780D1*
Y4270D1*
X80D1*
Y1730D1*
G37*
G36*
X2760D2*
X4460D1*
Y4270D1*
X2760D1*
Y1730D1*
G37*
D20*
X3390Y360D3*
X3764D3*
X4138D3*
Y1423D3*
X3390D3*
M02*
